<?xml version="1.0" encoding="utf-8" ?><svg xmlns="http://www.w3.org/2000/svg" xmlns:xlink="http://www.w3.org/1999/xlink" width="500" height="500" viewBox="0 0 500 500"><path fill="#EE5A3D" transform="scale(0.351124 0.351124)" d="M425.785 115.246L721.453 115.268L825.542 115.185C880.202 115.113 920.142 113.935 974.124 126.091C1044.47 141.839 1109.99 174.301 1165.14 220.731C1257.57 298.646 1314.99 410.306 1324.58 530.815C1334.18 650.149 1295.59 768.36 1217.42 859.04C1150.2 937.123 1058.41 990.01 957.138 1009.01C898.005 1019.82 835.979 1015.86 776.07 1016.06C760.222 1016.12 742.574 1015.49 726.777 1016.76C725.363 1057.4 725.928 1098.54 726.01 1139.24L726.502 1315.91C708.594 1315.1 691.282 1315.03 673.3 1313.44C482.673 1296.59 312.277 1189.65 212.33 1025.28C162.802 943.175 133.759 850.357 127.654 754.665C124.899 714.627 125.706 671.744 125.722 631.35C125.845 594.496 125.767 557.642 125.486 520.789C125.462 485.417 125.962 450.615 125.148 415.146C194.781 414.538 265.782 415.568 335.648 415.602L392.132 415.627C402.381 415.629 416.392 416.057 426.194 415.119C425.17 382.497 425.8 350.674 425.91 318.094L425.975 184.37C425.977 162.131 426.528 137.157 425.785 115.246ZM726.365 1015L725.843 841.032C725.696 813.95 725.907 786.868 726.478 759.793C726.701 748.608 726.591 737.018 727.283 725.916L730.992 721.967C732.493 720.539 734.403 718.611 735.969 717.358L825.398 717.311C840.106 717.307 868.126 718.3 881.608 717.166C918.901 714.306 953.969 698.299 980.562 671.997C1009.19 643.534 1025.17 604.761 1024.92 564.395C1024.66 524.927 1008.63 487.2 980.416 459.605C960.421 439.843 935.188 426.217 907.697 420.338C881.485 414.886 856.134 416.307 829.479 416.232L747.328 415.87L426.966 414.565L426.893 608.579L426.858 680.334C426.847 700.643 426.597 720.142 428.399 740.41C442.423 898.169 569.632 1012.32 726.365 1015Z"/></svg>